<?xml version="1.0"?>

<!DOCTYPE svg PUBLIC '-//W3C//DTD SVG 1.0//EN' 'http://www.w3.org/TR/2001/REC-SVG-20010904/DTD/svg10.dtd'>
<svg stroke-dasharray="none" shape-rendering="auto" xmlns="http://www.w3.org/2000/svg" font-family="&apos;Dialog&apos;" width="1195" text-rendering="auto" fill-opacity="1" contentScriptType="text/ecmascript" color-interpolation="auto" color-rendering="auto" preserveAspectRatio="xMidYMid meet" font-size="12" fill="black" xmlns:xlink="http://www.w3.org/1999/xlink" stroke="black" image-rendering="auto" stroke-miterlimit="10" zoomAndPan="magnify" version="1.0" stroke-linecap="square" stroke-linejoin="miter" contentStyleType="text/css" font-style="normal" height="735" stroke-width="1" stroke-dashoffset="0" font-weight="normal" stroke-opacity="1">
  <!--Generated by the Batik Graphics2D SVG Generator-->
  <defs id="genericDefs" />
  <g>
    <defs id="defs1">
      <linearGradient x1="32" xmlns:xlink="http://www.w3.org/1999/xlink" x2="32" y1="58" gradientUnits="userSpaceOnUse" y2="96" xlink:type="simple" xlink:actuate="onLoad" id="linearGradient1" xlink:show="other" spreadMethod="pad">
        <stop stop-opacity="1" stop-color="rgb(163,203,255)" offset="0%" />
        <stop stop-opacity="1" stop-color="rgb(244,249,255)" offset="100%" />
      </linearGradient>
      <linearGradient x1="166" xmlns:xlink="http://www.w3.org/1999/xlink" x2="166" y1="182" gradientUnits="userSpaceOnUse" y2="222" xlink:type="simple" xlink:actuate="onLoad" id="linearGradient2" xlink:show="other" spreadMethod="pad">
        <stop stop-opacity="1" stop-color="rgb(163,203,255)" offset="0%" />
        <stop stop-opacity="1" stop-color="rgb(244,249,255)" offset="100%" />
      </linearGradient>
      <linearGradient x1="38" xmlns:xlink="http://www.w3.org/1999/xlink" x2="38" y1="183" gradientUnits="userSpaceOnUse" y2="223" xlink:type="simple" xlink:actuate="onLoad" id="linearGradient3" xlink:show="other" spreadMethod="pad">
        <stop stop-opacity="1" stop-color="rgb(163,203,255)" offset="0%" />
        <stop stop-opacity="1" stop-color="rgb(244,249,255)" offset="100%" />
      </linearGradient>
      <linearGradient x1="295" xmlns:xlink="http://www.w3.org/1999/xlink" x2="295" y1="182" gradientUnits="userSpaceOnUse" y2="222" xlink:type="simple" xlink:actuate="onLoad" id="linearGradient4" xlink:show="other" spreadMethod="pad">
        <stop stop-opacity="1" stop-color="rgb(163,203,255)" offset="0%" />
        <stop stop-opacity="1" stop-color="rgb(244,249,255)" offset="100%" />
      </linearGradient>
      <linearGradient x1="164" xmlns:xlink="http://www.w3.org/1999/xlink" x2="164" y1="56" gradientUnits="userSpaceOnUse" y2="96" xlink:type="simple" xlink:actuate="onLoad" id="linearGradient5" xlink:show="other" spreadMethod="pad">
        <stop stop-opacity="1" stop-color="rgb(163,203,255)" offset="0%" />
        <stop stop-opacity="1" stop-color="rgb(244,249,255)" offset="100%" />
      </linearGradient>
      <linearGradient x1="301" xmlns:xlink="http://www.w3.org/1999/xlink" x2="301" y1="54" gradientUnits="userSpaceOnUse" y2="95" xlink:type="simple" xlink:actuate="onLoad" id="linearGradient6" xlink:show="other" spreadMethod="pad">
        <stop stop-opacity="1" stop-color="rgb(163,203,255)" offset="0%" />
        <stop stop-opacity="1" stop-color="rgb(244,249,255)" offset="100%" />
      </linearGradient>
      <linearGradient x1="433" xmlns:xlink="http://www.w3.org/1999/xlink" x2="433" y1="53" gradientUnits="userSpaceOnUse" y2="94" xlink:type="simple" xlink:actuate="onLoad" id="linearGradient7" xlink:show="other" spreadMethod="pad">
        <stop stop-opacity="1" stop-color="rgb(163,203,255)" offset="0%" />
        <stop stop-opacity="1" stop-color="rgb(244,249,255)" offset="100%" />
      </linearGradient>
      <linearGradient x1="576" xmlns:xlink="http://www.w3.org/1999/xlink" x2="576" y1="53" gradientUnits="userSpaceOnUse" y2="94" xlink:type="simple" xlink:actuate="onLoad" id="linearGradient8" xlink:show="other" spreadMethod="pad">
        <stop stop-opacity="1" stop-color="rgb(163,203,255)" offset="0%" />
        <stop stop-opacity="1" stop-color="rgb(244,249,255)" offset="100%" />
      </linearGradient>
      <clipPath clipPathUnits="userSpaceOnUse" id="clipPath1">
        <path d="M73 95 L91 95 L91 185 L73 185 L73 95 Z" />
      </clipPath>
      <clipPath clipPathUnits="userSpaceOnUse" id="clipPath2">
        <path d="M73 95 L91 95 L91 113 L73 113 L73 95 Z" />
      </clipPath>
      <clipPath clipPathUnits="userSpaceOnUse" id="clipPath3">
        <path d="M205 95 L223 95 L223 184 L205 184 L205 95 Z" />
      </clipPath>
      <clipPath clipPathUnits="userSpaceOnUse" id="clipPath4">
        <path d="M205 95 L223 95 L223 113 L205 113 L205 95 Z" />
      </clipPath>
      <clipPath clipPathUnits="userSpaceOnUse" id="clipPath5">
        <path d="M341 94 L359 94 L359 184 L341 184 L341 94 Z" />
      </clipPath>
      <clipPath clipPathUnits="userSpaceOnUse" id="clipPath6">
        <path d="M341 94 L359 94 L359 112 L341 112 L341 94 Z" />
      </clipPath>
      <clipPath clipPathUnits="userSpaceOnUse" id="clipPath7">
        <path d="M31 43 L63 43 L63 60 L31 60 L31 43 Z" />
      </clipPath>
      <clipPath clipPathUnits="userSpaceOnUse" id="clipPath8">
        <path d="M31 57 L134 57 L134 97 L31 97 L31 57 Z" />
      </clipPath>
      <clipPath clipPathUnits="userSpaceOnUse" id="clipPath9">
        <path d="M41 72 L104 72 L104 87 L41 87 L41 72 Z" />
      </clipPath>
      <clipPath clipPathUnits="userSpaceOnUse" id="clipPath10">
        <path d="M117 62 L130 62 L130 79 L117 79 L117 62 Z" />
      </clipPath>
      <clipPath clipPathUnits="userSpaceOnUse" id="clipPath11">
        <path d="M117 62 L129 62 L129 78 L117 78 L117 62 Z" />
      </clipPath>
      <clipPath clipPathUnits="userSpaceOnUse" id="clipPath12">
        <path d="M117 65 L129 65 L129 78 L117 78 L117 65 Z" />
      </clipPath>
      <clipPath clipPathUnits="userSpaceOnUse" id="clipPath13">
        <path d="M29 41 L136 41 L136 99 L29 99 L29 41 Z" />
      </clipPath>
      <clipPath clipPathUnits="userSpaceOnUse" id="clipPath14">
        <path d="M165 167 L197 167 L197 184 L165 184 L165 167 Z" />
      </clipPath>
      <clipPath clipPathUnits="userSpaceOnUse" id="clipPath15">
        <path d="M165 181 L272 181 L272 223 L165 223 L165 181 Z" />
      </clipPath>
      <clipPath clipPathUnits="userSpaceOnUse" id="clipPath16">
        <path d="M175 196 L242 196 L242 213 L175 213 L175 196 Z" />
      </clipPath>
      <clipPath clipPathUnits="userSpaceOnUse" id="clipPath17">
        <path d="M255 186 L268 186 L268 203 L255 203 L255 186 Z" />
      </clipPath>
      <clipPath clipPathUnits="userSpaceOnUse" id="clipPath18">
        <path d="M255 186 L267 186 L267 202 L255 202 L255 186 Z" />
      </clipPath>
      <clipPath clipPathUnits="userSpaceOnUse" id="clipPath19">
        <path d="M255 189 L267 189 L267 202 L255 202 L255 189 Z" />
      </clipPath>
      <clipPath clipPathUnits="userSpaceOnUse" id="clipPath20">
        <path d="M163 165 L274 165 L274 225 L163 225 L163 165 Z" />
      </clipPath>
      <clipPath clipPathUnits="userSpaceOnUse" id="clipPath21">
        <path d="M37 168 L69 168 L69 185 L37 185 L37 168 Z" />
      </clipPath>
      <clipPath clipPathUnits="userSpaceOnUse" id="clipPath22">
        <path d="M37 182 L144 182 L144 224 L37 224 L37 182 Z" />
      </clipPath>
      <clipPath clipPathUnits="userSpaceOnUse" id="clipPath23">
        <path d="M47 197 L114 197 L114 214 L47 214 L47 197 Z" />
      </clipPath>
      <clipPath clipPathUnits="userSpaceOnUse" id="clipPath24">
        <path d="M127 187 L140 187 L140 204 L127 204 L127 187 Z" />
      </clipPath>
      <clipPath clipPathUnits="userSpaceOnUse" id="clipPath25">
        <path d="M127 187 L139 187 L139 203 L127 203 L127 187 Z" />
      </clipPath>
      <clipPath clipPathUnits="userSpaceOnUse" id="clipPath26">
        <path d="M127 190 L139 190 L139 203 L127 203 L127 190 Z" />
      </clipPath>
      <clipPath clipPathUnits="userSpaceOnUse" id="clipPath27">
        <path d="M35 166 L146 166 L146 226 L35 226 L35 166 Z" />
      </clipPath>
      <clipPath clipPathUnits="userSpaceOnUse" id="clipPath28">
        <path d="M294 167 L326 167 L326 184 L294 184 L294 167 Z" />
      </clipPath>
      <clipPath clipPathUnits="userSpaceOnUse" id="clipPath29">
        <path d="M294 181 L401 181 L401 223 L294 223 L294 181 Z" />
      </clipPath>
      <clipPath clipPathUnits="userSpaceOnUse" id="clipPath30">
        <path d="M304 196 L371 196 L371 213 L304 213 L304 196 Z" />
      </clipPath>
      <clipPath clipPathUnits="userSpaceOnUse" id="clipPath31">
        <path d="M384 186 L397 186 L397 203 L384 203 L384 186 Z" />
      </clipPath>
      <clipPath clipPathUnits="userSpaceOnUse" id="clipPath32">
        <path d="M384 186 L396 186 L396 202 L384 202 L384 186 Z" />
      </clipPath>
      <clipPath clipPathUnits="userSpaceOnUse" id="clipPath33">
        <path d="M384 189 L396 189 L396 202 L384 202 L384 189 Z" />
      </clipPath>
      <clipPath clipPathUnits="userSpaceOnUse" id="clipPath34">
        <path d="M292 165 L403 165 L403 225 L292 225 L292 165 Z" />
      </clipPath>
      <clipPath clipPathUnits="userSpaceOnUse" id="clipPath35">
        <path d="M163 41 L195 41 L195 58 L163 58 L163 41 Z" />
      </clipPath>
      <clipPath clipPathUnits="userSpaceOnUse" id="clipPath36">
        <path d="M163 55 L265 55 L265 97 L163 97 L163 55 Z" />
      </clipPath>
      <clipPath clipPathUnits="userSpaceOnUse" id="clipPath37">
        <path d="M173 70 L235 70 L235 87 L173 87 L173 70 Z" />
      </clipPath>
      <clipPath clipPathUnits="userSpaceOnUse" id="clipPath38">
        <path d="M248 60 L261 60 L261 77 L248 77 L248 60 Z" />
      </clipPath>
      <clipPath clipPathUnits="userSpaceOnUse" id="clipPath39">
        <path d="M248 60 L260 60 L260 76 L248 76 L248 60 Z" />
      </clipPath>
      <clipPath clipPathUnits="userSpaceOnUse" id="clipPath40">
        <path d="M248 63 L260 63 L260 76 L248 76 L248 63 Z" />
      </clipPath>
      <clipPath clipPathUnits="userSpaceOnUse" id="clipPath41">
        <path d="M161 39 L267 39 L267 99 L161 99 L161 39 Z" />
      </clipPath>
      <clipPath clipPathUnits="userSpaceOnUse" id="clipPath42">
        <path d="M300 39 L332 39 L332 56 L300 56 L300 39 Z" />
      </clipPath>
      <clipPath clipPathUnits="userSpaceOnUse" id="clipPath43">
        <path d="M300 53 L400 53 L400 96 L300 96 L300 53 Z" />
      </clipPath>
      <clipPath clipPathUnits="userSpaceOnUse" id="clipPath44">
        <path d="M310 68 L372 68 L372 85 L310 85 L310 68 Z" />
      </clipPath>
      <clipPath clipPathUnits="userSpaceOnUse" id="clipPath45">
        <path d="M383 58 L396 58 L396 75 L383 75 L383 58 Z" />
      </clipPath>
      <clipPath clipPathUnits="userSpaceOnUse" id="clipPath46">
        <path d="M383 58 L395 58 L395 74 L383 74 L383 58 Z" />
      </clipPath>
      <clipPath clipPathUnits="userSpaceOnUse" id="clipPath47">
        <path d="M383 61 L395 61 L395 74 L383 74 L383 61 Z" />
      </clipPath>
      <clipPath clipPathUnits="userSpaceOnUse" id="clipPath48">
        <path d="M298 37 L402 37 L402 98 L298 98 L298 37 Z" />
      </clipPath>
      <clipPath clipPathUnits="userSpaceOnUse" id="clipPath49">
        <path d="M432 38 L464 38 L464 55 L432 55 L432 38 Z" />
      </clipPath>
      <clipPath clipPathUnits="userSpaceOnUse" id="clipPath50">
        <path d="M432 52 L547 52 L547 95 L432 95 L432 52 Z" />
      </clipPath>
      <clipPath clipPathUnits="userSpaceOnUse" id="clipPath51">
        <path d="M442 67 L517 67 L517 84 L442 84 L442 67 Z" />
      </clipPath>
      <clipPath clipPathUnits="userSpaceOnUse" id="clipPath52">
        <path d="M530 57 L543 57 L543 74 L530 74 L530 57 Z" />
      </clipPath>
      <clipPath clipPathUnits="userSpaceOnUse" id="clipPath53">
        <path d="M530 57 L542 57 L542 73 L530 73 L530 57 Z" />
      </clipPath>
      <clipPath clipPathUnits="userSpaceOnUse" id="clipPath54">
        <path d="M530 60 L542 60 L542 73 L530 73 L530 60 Z" />
      </clipPath>
      <clipPath clipPathUnits="userSpaceOnUse" id="clipPath55">
        <path d="M430 36 L549 36 L549 97 L430 97 L430 36 Z" />
      </clipPath>
      <clipPath clipPathUnits="userSpaceOnUse" id="clipPath56">
        <path d="M575 38 L607 38 L607 55 L575 55 L575 38 Z" />
      </clipPath>
      <clipPath clipPathUnits="userSpaceOnUse" id="clipPath57">
        <path d="M575 52 L675 52 L675 95 L575 95 L575 52 Z" />
      </clipPath>
      <clipPath clipPathUnits="userSpaceOnUse" id="clipPath58">
        <path d="M585 67 L647 67 L647 84 L585 84 L585 67 Z" />
      </clipPath>
      <clipPath clipPathUnits="userSpaceOnUse" id="clipPath59">
        <path d="M658 57 L671 57 L671 74 L658 74 L658 57 Z" />
      </clipPath>
      <clipPath clipPathUnits="userSpaceOnUse" id="clipPath60">
        <path d="M658 57 L670 57 L670 73 L658 73 L658 57 Z" />
      </clipPath>
      <clipPath clipPathUnits="userSpaceOnUse" id="clipPath61">
        <path d="M658 60 L670 60 L670 73 L658 73 L658 60 Z" />
      </clipPath>
      <clipPath clipPathUnits="userSpaceOnUse" id="clipPath62">
        <path d="M573 36 L677 36 L677 97 L573 97 L573 36 Z" />
      </clipPath>
    </defs>
    <g fill="rgb(51,51,51)" text-rendering="optimizeLegibility" font-family="&apos;Segoe UI&apos;" stroke-linecap="butt" stroke="rgb(51,51,51)">
      <line clip-path="url(#clipPath1)" fill="none" x1="82" x2="82" y1="183" y2="96" />
      <circle clip-path="url(#clipPath2)" fill="white" r="7" cx="81" cy="103" stroke="none" />
      <circle fill="none" r="7.5" clip-path="url(#clipPath2)" cx="81.5" cy="103.5" />
      <line clip-path="url(#clipPath2)" fill="none" x1="82" x2="82" y1="100" y2="108" />
      <line clip-path="url(#clipPath2)" fill="none" x1="78" x2="86" y1="104" y2="104" />
      <line clip-path="url(#clipPath3)" fill="none" x1="214" x2="214" y1="182" y2="96" />
      <circle clip-path="url(#clipPath4)" fill="white" r="7" cx="213" cy="103" stroke="none" />
      <circle fill="none" r="7.5" clip-path="url(#clipPath4)" cx="213.5" cy="103.5" />
      <line clip-path="url(#clipPath4)" fill="none" x1="214" x2="214" y1="100" y2="108" />
      <line clip-path="url(#clipPath4)" fill="none" x1="210" x2="218" y1="104" y2="104" />
      <line clip-path="url(#clipPath5)" fill="none" x1="350" x2="350" y1="182" y2="95" />
      <circle clip-path="url(#clipPath6)" fill="white" r="7" cx="349" cy="102" stroke="none" />
      <circle fill="none" r="7.5" clip-path="url(#clipPath6)" cx="349.5" cy="102.5" />
      <line clip-path="url(#clipPath6)" fill="none" x1="350" x2="350" y1="99" y2="107" />
      <line clip-path="url(#clipPath6)" fill="none" x1="346" x2="354" y1="103" y2="103" />
      <rect x="32" y="44" clip-path="url(#clipPath7)" fill="rgb(163,203,255)" width="30" height="15" stroke="none" />
      <rect x="32" y="58" clip-path="url(#clipPath8)" fill="url(#linearGradient1)" width="101" height="38" stroke="none" />
      <text x="47" y="85" clip-path="url(#clipPath9)" stroke="none" font-weight="bold" xml:space="preserve">activities</text>
      <polygon fill="gray" clip-path="url(#clipPath10)" opacity="0.549" points=" 119 64 125 64 128 67 128 77 119 77" stroke="none" />
      <polygon fill="rgb(205,223,101)" clip-path="url(#clipPath11)" points=" 118 63 124 63 127 66 127 76 118 76" stroke="none" />
      <polygon fill="none" clip-path="url(#clipPath11)" points=" 118 63 124 63 127 66 127 76 118 76" stroke="rgb(141,196,17)" />
      <polygon fill="none" clip-path="url(#clipPath11)" points=" 124 63 127 66 124 66" stroke="rgb(141,196,17)" />
    </g>
    <g font-size="8" stroke-linecap="butt" fill="rgb(64,64,64)" text-rendering="optimizeLegibility" font-family="&apos;Arial&apos;" stroke="rgb(64,64,64)">
      <text xml:space="preserve" x="123" y="74" clip-path="url(#clipPath12)" stroke="none"></text>
    </g>
    <g stroke-linecap="butt" fill="rgb(204,204,204)" text-rendering="optimizeLegibility" font-family="&apos;Segoe UI&apos;" stroke="rgb(204,204,204)" stroke-width="2">
      <line clip-path="url(#clipPath13)" fill="none" x1="33" x2="33" y1="44" y2="96" />
      <line clip-path="url(#clipPath13)" fill="none" x1="32" x2="133" y1="95" y2="95" />
      <line clip-path="url(#clipPath13)" fill="none" x1="132" x2="132" y1="58" y2="96" />
      <line clip-path="url(#clipPath13)" fill="none" x1="60" x2="133" y1="58" y2="58" />
      <line clip-path="url(#clipPath13)" fill="none" x1="61" x2="61" y1="44" y2="59" />
      <line clip-path="url(#clipPath13)" fill="none" x1="32" x2="62" y1="45" y2="45" />
      <rect x="166" y="168" clip-path="url(#clipPath14)" fill="rgb(163,203,255)" width="30" height="15" stroke="none" />
      <rect x="166" y="182" clip-path="url(#clipPath15)" fill="url(#linearGradient2)" width="105" height="40" stroke="none" />
      <text x="176" y="210" clip-path="url(#clipPath16)" fill="rgb(51,51,51)" stroke="none" font-weight="bold" xml:space="preserve">expressions</text>
      <polygon fill="gray" clip-path="url(#clipPath17)" opacity="0.549" points=" 257 188 263 188 266 191 266 201 257 201" stroke="none" />
      <polygon fill="rgb(205,223,101)" clip-path="url(#clipPath18)" points=" 256 187 262 187 265 190 265 200 256 200" stroke="none" />
      <polygon fill="none" stroke-width="1" clip-path="url(#clipPath18)" points=" 256 187 262 187 265 190 265 200 256 200" stroke="rgb(141,196,17)" />
      <polygon fill="none" stroke-width="1" clip-path="url(#clipPath18)" points=" 262 187 265 190 262 190" stroke="rgb(141,196,17)" />
    </g>
    <g font-size="8" stroke-linecap="butt" fill="rgb(64,64,64)" text-rendering="optimizeLegibility" font-family="&apos;Arial&apos;" stroke="rgb(64,64,64)">
      <text xml:space="preserve" x="261" y="198" clip-path="url(#clipPath19)" stroke="none"></text>
    </g>
    <g stroke-linecap="butt" fill="rgb(204,204,204)" text-rendering="optimizeLegibility" font-family="&apos;Segoe UI&apos;" stroke="rgb(204,204,204)" stroke-width="2">
      <line clip-path="url(#clipPath20)" fill="none" x1="167" x2="167" y1="168" y2="222" />
      <line clip-path="url(#clipPath20)" fill="none" x1="166" x2="271" y1="221" y2="221" />
      <line clip-path="url(#clipPath20)" fill="none" x1="270" x2="270" y1="182" y2="222" />
      <line clip-path="url(#clipPath20)" fill="none" x1="194" x2="271" y1="182" y2="182" />
      <line clip-path="url(#clipPath20)" fill="none" x1="195" x2="195" y1="168" y2="183" />
      <line clip-path="url(#clipPath20)" fill="none" x1="166" x2="196" y1="169" y2="169" />
      <rect x="38" y="169" clip-path="url(#clipPath21)" fill="rgb(163,203,255)" width="30" height="15" stroke="none" />
      <rect x="38" y="183" clip-path="url(#clipPath22)" fill="url(#linearGradient3)" width="105" height="40" stroke="none" />
      <text x="48" y="211" clip-path="url(#clipPath23)" fill="rgb(51,51,51)" stroke="none" font-weight="bold" xml:space="preserve">expressions</text>
      <polygon fill="gray" clip-path="url(#clipPath24)" opacity="0.549" points=" 129 189 135 189 138 192 138 202 129 202" stroke="none" />
      <polygon fill="rgb(205,223,101)" clip-path="url(#clipPath25)" points=" 128 188 134 188 137 191 137 201 128 201" stroke="none" />
      <polygon fill="none" stroke-width="1" clip-path="url(#clipPath25)" points=" 128 188 134 188 137 191 137 201 128 201" stroke="rgb(141,196,17)" />
      <polygon fill="none" stroke-width="1" clip-path="url(#clipPath25)" points=" 134 188 137 191 134 191" stroke="rgb(141,196,17)" />
    </g>
    <g font-size="8" stroke-linecap="butt" fill="rgb(64,64,64)" text-rendering="optimizeLegibility" font-family="&apos;Arial&apos;" stroke="rgb(64,64,64)">
      <text xml:space="preserve" x="133" y="199" clip-path="url(#clipPath26)" stroke="none"></text>
    </g>
    <g stroke-linecap="butt" fill="rgb(204,204,204)" text-rendering="optimizeLegibility" font-family="&apos;Segoe UI&apos;" stroke="rgb(204,204,204)" stroke-width="2">
      <line clip-path="url(#clipPath27)" fill="none" x1="39" x2="39" y1="169" y2="223" />
      <line clip-path="url(#clipPath27)" fill="none" x1="38" x2="143" y1="222" y2="222" />
      <line clip-path="url(#clipPath27)" fill="none" x1="142" x2="142" y1="183" y2="223" />
      <line clip-path="url(#clipPath27)" fill="none" x1="66" x2="143" y1="183" y2="183" />
      <line clip-path="url(#clipPath27)" fill="none" x1="67" x2="67" y1="169" y2="184" />
      <line clip-path="url(#clipPath27)" fill="none" x1="38" x2="68" y1="170" y2="170" />
      <rect x="295" y="168" clip-path="url(#clipPath28)" fill="rgb(163,203,255)" width="30" height="15" stroke="none" />
      <rect x="295" y="182" clip-path="url(#clipPath29)" fill="url(#linearGradient4)" width="105" height="40" stroke="none" />
      <text x="305" y="210" clip-path="url(#clipPath30)" fill="rgb(51,51,51)" stroke="none" font-weight="bold" xml:space="preserve">expressions</text>
      <polygon fill="gray" clip-path="url(#clipPath31)" opacity="0.549" points=" 386 188 392 188 395 191 395 201 386 201" stroke="none" />
      <polygon fill="rgb(205,223,101)" clip-path="url(#clipPath32)" points=" 385 187 391 187 394 190 394 200 385 200" stroke="none" />
      <polygon fill="none" stroke-width="1" clip-path="url(#clipPath32)" points=" 385 187 391 187 394 190 394 200 385 200" stroke="rgb(141,196,17)" />
      <polygon fill="none" stroke-width="1" clip-path="url(#clipPath32)" points=" 391 187 394 190 391 190" stroke="rgb(141,196,17)" />
    </g>
    <g font-size="8" stroke-linecap="butt" fill="rgb(64,64,64)" text-rendering="optimizeLegibility" font-family="&apos;Arial&apos;" stroke="rgb(64,64,64)">
      <text xml:space="preserve" x="390" y="198" clip-path="url(#clipPath33)" stroke="none"></text>
    </g>
    <g stroke-linecap="butt" fill="rgb(204,204,204)" text-rendering="optimizeLegibility" font-family="&apos;Segoe UI&apos;" stroke="rgb(204,204,204)" stroke-width="2">
      <line clip-path="url(#clipPath34)" fill="none" x1="296" x2="296" y1="168" y2="222" />
      <line clip-path="url(#clipPath34)" fill="none" x1="295" x2="400" y1="221" y2="221" />
      <line clip-path="url(#clipPath34)" fill="none" x1="399" x2="399" y1="182" y2="222" />
      <line clip-path="url(#clipPath34)" fill="none" x1="323" x2="400" y1="182" y2="182" />
      <line clip-path="url(#clipPath34)" fill="none" x1="324" x2="324" y1="168" y2="183" />
      <line clip-path="url(#clipPath34)" fill="none" x1="295" x2="325" y1="169" y2="169" />
      <rect x="164" y="42" clip-path="url(#clipPath35)" fill="rgb(163,203,255)" width="30" height="15" stroke="none" />
      <rect x="164" y="56" clip-path="url(#clipPath36)" fill="url(#linearGradient5)" width="100" height="40" stroke="none" />
      <text x="192" y="84" clip-path="url(#clipPath37)" fill="rgb(51,51,51)" stroke="none" font-weight="bold" xml:space="preserve">calls</text>
      <polygon fill="gray" clip-path="url(#clipPath38)" opacity="0.549" points=" 250 62 256 62 259 65 259 75 250 75" stroke="none" />
      <polygon fill="rgb(205,223,101)" clip-path="url(#clipPath39)" points=" 249 61 255 61 258 64 258 74 249 74" stroke="none" />
      <polygon fill="none" stroke-width="1" clip-path="url(#clipPath39)" points=" 249 61 255 61 258 64 258 74 249 74" stroke="rgb(141,196,17)" />
      <polygon fill="none" stroke-width="1" clip-path="url(#clipPath39)" points=" 255 61 258 64 255 64" stroke="rgb(141,196,17)" />
    </g>
    <g font-size="8" stroke-linecap="butt" fill="rgb(64,64,64)" text-rendering="optimizeLegibility" font-family="&apos;Arial&apos;" stroke="rgb(64,64,64)">
      <text xml:space="preserve" x="254" y="72" clip-path="url(#clipPath40)" stroke="none"></text>
    </g>
    <g stroke-linecap="butt" fill="rgb(204,204,204)" text-rendering="optimizeLegibility" font-family="&apos;Segoe UI&apos;" stroke="rgb(204,204,204)" stroke-width="2">
      <line clip-path="url(#clipPath41)" fill="none" x1="165" x2="165" y1="42" y2="96" />
      <line clip-path="url(#clipPath41)" fill="none" x1="164" x2="264" y1="95" y2="95" />
      <line clip-path="url(#clipPath41)" fill="none" x1="263" x2="263" y1="56" y2="96" />
      <line clip-path="url(#clipPath41)" fill="none" x1="192" x2="264" y1="56" y2="56" />
      <line clip-path="url(#clipPath41)" fill="none" x1="193" x2="193" y1="42" y2="57" />
      <line clip-path="url(#clipPath41)" fill="none" x1="164" x2="194" y1="43" y2="43" />
      <rect x="301" y="40" clip-path="url(#clipPath42)" fill="rgb(163,203,255)" width="30" height="15" stroke="none" />
      <rect x="301" y="54" clip-path="url(#clipPath43)" fill="url(#linearGradient6)" width="98" height="41" stroke="none" />
      <text x="317" y="82" clip-path="url(#clipPath44)" fill="rgb(51,51,51)" stroke="none" font-weight="bold" xml:space="preserve">patterns</text>
      <polygon fill="gray" clip-path="url(#clipPath45)" opacity="0.549" points=" 385 60 391 60 394 63 394 73 385 73" stroke="none" />
      <polygon fill="rgb(205,223,101)" clip-path="url(#clipPath46)" points=" 384 59 390 59 393 62 393 72 384 72" stroke="none" />
      <polygon fill="none" stroke-width="1" clip-path="url(#clipPath46)" points=" 384 59 390 59 393 62 393 72 384 72" stroke="rgb(141,196,17)" />
      <polygon fill="none" stroke-width="1" clip-path="url(#clipPath46)" points=" 390 59 393 62 390 62" stroke="rgb(141,196,17)" />
    </g>
    <g font-size="8" stroke-linecap="butt" fill="rgb(64,64,64)" text-rendering="optimizeLegibility" font-family="&apos;Arial&apos;" stroke="rgb(64,64,64)">
      <text xml:space="preserve" x="389" y="70" clip-path="url(#clipPath47)" stroke="none"></text>
    </g>
    <g stroke-linecap="butt" fill="rgb(204,204,204)" text-rendering="optimizeLegibility" font-family="&apos;Segoe UI&apos;" stroke="rgb(204,204,204)" stroke-width="2">
      <line clip-path="url(#clipPath48)" fill="none" x1="302" x2="302" y1="40" y2="95" />
      <line clip-path="url(#clipPath48)" fill="none" x1="301" x2="399" y1="94" y2="94" />
      <line clip-path="url(#clipPath48)" fill="none" x1="398" x2="398" y1="54" y2="95" />
      <line clip-path="url(#clipPath48)" fill="none" x1="329" x2="399" y1="54" y2="54" />
      <line clip-path="url(#clipPath48)" fill="none" x1="330" x2="330" y1="40" y2="55" />
      <line clip-path="url(#clipPath48)" fill="none" x1="301" x2="331" y1="41" y2="41" />
      <rect x="433" y="39" clip-path="url(#clipPath49)" fill="rgb(163,203,255)" width="30" height="15" stroke="none" />
      <rect x="433" y="53" clip-path="url(#clipPath50)" fill="url(#linearGradient7)" width="113" height="41" stroke="none" />
      <text x="447" y="81" clip-path="url(#clipPath51)" fill="rgb(51,51,51)" stroke="none" font-weight="bold" xml:space="preserve">expressions</text>
      <polygon fill="gray" clip-path="url(#clipPath52)" opacity="0.549" points=" 532 59 538 59 541 62 541 72 532 72" stroke="none" />
      <polygon fill="rgb(205,223,101)" clip-path="url(#clipPath53)" points=" 531 58 537 58 540 61 540 71 531 71" stroke="none" />
      <polygon fill="none" stroke-width="1" clip-path="url(#clipPath53)" points=" 531 58 537 58 540 61 540 71 531 71" stroke="rgb(141,196,17)" />
      <polygon fill="none" stroke-width="1" clip-path="url(#clipPath53)" points=" 537 58 540 61 537 61" stroke="rgb(141,196,17)" />
    </g>
    <g font-size="8" stroke-linecap="butt" fill="rgb(64,64,64)" text-rendering="optimizeLegibility" font-family="&apos;Arial&apos;" stroke="rgb(64,64,64)">
      <text xml:space="preserve" x="536" y="69" clip-path="url(#clipPath54)" stroke="none"></text>
    </g>
    <g stroke-linecap="butt" fill="rgb(204,204,204)" text-rendering="optimizeLegibility" font-family="&apos;Segoe UI&apos;" stroke="rgb(204,204,204)" stroke-width="2">
      <line clip-path="url(#clipPath55)" fill="none" x1="434" x2="434" y1="39" y2="94" />
      <line clip-path="url(#clipPath55)" fill="none" x1="433" x2="546" y1="93" y2="93" />
      <line clip-path="url(#clipPath55)" fill="none" x1="545" x2="545" y1="53" y2="94" />
      <line clip-path="url(#clipPath55)" fill="none" x1="461" x2="546" y1="53" y2="53" />
      <line clip-path="url(#clipPath55)" fill="none" x1="462" x2="462" y1="39" y2="54" />
      <line clip-path="url(#clipPath55)" fill="none" x1="433" x2="463" y1="40" y2="40" />
      <rect x="576" y="39" clip-path="url(#clipPath56)" fill="rgb(163,203,255)" width="30" height="15" stroke="none" />
      <rect x="576" y="53" clip-path="url(#clipPath57)" fill="url(#linearGradient8)" width="98" height="41" stroke="none" />
      <text x="588" y="81" clip-path="url(#clipPath58)" fill="rgb(51,51,51)" stroke="none" font-weight="bold" xml:space="preserve">templates</text>
      <polygon fill="gray" clip-path="url(#clipPath59)" opacity="0.549" points=" 660 59 666 59 669 62 669 72 660 72" stroke="none" />
      <polygon fill="rgb(205,223,101)" clip-path="url(#clipPath60)" points=" 659 58 665 58 668 61 668 71 659 71" stroke="none" />
      <polygon fill="none" stroke-width="1" clip-path="url(#clipPath60)" points=" 659 58 665 58 668 61 668 71 659 71" stroke="rgb(141,196,17)" />
      <polygon fill="none" stroke-width="1" clip-path="url(#clipPath60)" points=" 665 58 668 61 665 61" stroke="rgb(141,196,17)" />
    </g>
    <g font-size="8" stroke-linecap="butt" fill="rgb(64,64,64)" text-rendering="optimizeLegibility" font-family="&apos;Arial&apos;" stroke="rgb(64,64,64)">
      <text xml:space="preserve" x="664" y="69" clip-path="url(#clipPath61)" stroke="none"></text>
    </g>
    <g stroke-linecap="butt" fill="rgb(204,204,204)" text-rendering="optimizeLegibility" font-family="&apos;Segoe UI&apos;" stroke="rgb(204,204,204)" stroke-width="2">
      <line clip-path="url(#clipPath62)" fill="none" x1="577" x2="577" y1="39" y2="94" />
      <line clip-path="url(#clipPath62)" fill="none" x1="576" x2="674" y1="93" y2="93" />
      <line clip-path="url(#clipPath62)" fill="none" x1="673" x2="673" y1="53" y2="94" />
      <line clip-path="url(#clipPath62)" fill="none" x1="604" x2="674" y1="53" y2="53" />
      <line clip-path="url(#clipPath62)" fill="none" x1="605" x2="605" y1="39" y2="54" />
      <line clip-path="url(#clipPath62)" fill="none" x1="576" x2="606" y1="40" y2="40" />
    </g>
  </g>
</svg>
