<?xml version="1.0"?>

<!DOCTYPE svg PUBLIC '-//W3C//DTD SVG 1.0//EN' 'http://www.w3.org/TR/2001/REC-SVG-20010904/DTD/svg10.dtd'>
<svg stroke-dasharray="none" shape-rendering="auto" xmlns="http://www.w3.org/2000/svg" font-family="&apos;Dialog&apos;" width="1195" text-rendering="auto" fill-opacity="1" contentScriptType="text/ecmascript" color-interpolation="auto" color-rendering="auto" preserveAspectRatio="xMidYMid meet" font-size="12" fill="black" xmlns:xlink="http://www.w3.org/1999/xlink" stroke="black" image-rendering="auto" stroke-miterlimit="10" zoomAndPan="magnify" version="1.0" stroke-linecap="square" stroke-linejoin="miter" contentStyleType="text/css" font-style="normal" height="735" stroke-width="1" stroke-dashoffset="0" font-weight="normal" stroke-opacity="1">
  <!--Generated by the Batik Graphics2D SVG Generator-->
  <defs id="genericDefs" />
  <g>
    <defs id="defs1">
      <linearGradient x1="34" xmlns:xlink="http://www.w3.org/1999/xlink" x2="34" y1="41" gradientUnits="userSpaceOnUse" y2="64" xlink:type="simple" xlink:actuate="onLoad" id="linearGradient1" xlink:show="other" spreadMethod="pad">
        <stop stop-opacity="1" stop-color="rgb(163,203,255)" offset="0%" />
        <stop stop-opacity="1" stop-color="rgb(244,249,255)" offset="100%" />
      </linearGradient>
      <linearGradient x1="306" xmlns:xlink="http://www.w3.org/1999/xlink" x2="306" y1="164" gradientUnits="userSpaceOnUse" y2="187" xlink:type="simple" xlink:actuate="onLoad" id="linearGradient2" xlink:show="other" spreadMethod="pad">
        <stop stop-opacity="1" stop-color="rgb(163,203,255)" offset="0%" />
        <stop stop-opacity="1" stop-color="rgb(244,249,255)" offset="100%" />
      </linearGradient>
      <linearGradient x1="306" xmlns:xlink="http://www.w3.org/1999/xlink" x2="306" y1="70" gradientUnits="userSpaceOnUse" y2="93" xlink:type="simple" xlink:actuate="onLoad" id="linearGradient3" xlink:show="other" spreadMethod="pad">
        <stop stop-opacity="1" stop-color="rgb(163,203,255)" offset="0%" />
        <stop stop-opacity="1" stop-color="rgb(244,249,255)" offset="100%" />
      </linearGradient>
      <linearGradient x1="316" xmlns:xlink="http://www.w3.org/1999/xlink" x2="316" y1="333" gradientUnits="userSpaceOnUse" y2="356" xlink:type="simple" xlink:actuate="onLoad" id="linearGradient4" xlink:show="other" spreadMethod="pad">
        <stop stop-opacity="1" stop-color="rgb(163,203,255)" offset="0%" />
        <stop stop-opacity="1" stop-color="rgb(244,249,255)" offset="100%" />
      </linearGradient>
      <linearGradient x1="34" xmlns:xlink="http://www.w3.org/1999/xlink" x2="34" y1="311" gradientUnits="userSpaceOnUse" y2="351" xlink:type="simple" xlink:actuate="onLoad" id="linearGradient5" xlink:show="other" spreadMethod="pad">
        <stop stop-opacity="1" stop-color="rgb(163,203,255)" offset="0%" />
        <stop stop-opacity="1" stop-color="rgb(244,249,255)" offset="100%" />
      </linearGradient>
      <linearGradient x1="640" xmlns:xlink="http://www.w3.org/1999/xlink" x2="640" y1="328" gradientUnits="userSpaceOnUse" y2="351" xlink:type="simple" xlink:actuate="onLoad" id="linearGradient6" xlink:show="other" spreadMethod="pad">
        <stop stop-opacity="1" stop-color="rgb(163,203,255)" offset="0%" />
        <stop stop-opacity="1" stop-color="rgb(244,249,255)" offset="100%" />
      </linearGradient>
      <linearGradient x1="653" xmlns:xlink="http://www.w3.org/1999/xlink" x2="653" y1="67" gradientUnits="userSpaceOnUse" y2="107" xlink:type="simple" xlink:actuate="onLoad" id="linearGradient7" xlink:show="other" spreadMethod="pad">
        <stop stop-opacity="1" stop-color="rgb(163,203,255)" offset="0%" />
        <stop stop-opacity="1" stop-color="rgb(244,249,255)" offset="100%" />
      </linearGradient>
      <clipPath clipPathUnits="userSpaceOnUse" id="clipPath1">
        <path d="M453 216 L714 216 L714 328 L453 328 L453 216 Z" />
      </clipPath>
      <clipPath clipPathUnits="userSpaceOnUse" id="clipPath2">
        <path d="M496 226 L516 226 L516 243 L496 243 L496 226 Z" />
      </clipPath>
      <clipPath clipPathUnits="userSpaceOnUse" id="clipPath3">
        <path d="M466 246 L556 246 L556 263 L466 263 L466 246 Z" />
      </clipPath>
      <clipPath clipPathUnits="userSpaceOnUse" id="clipPath4">
        <path d="M626 286 L634 286 L634 303 L626 303 L626 286 Z" />
      </clipPath>
      <clipPath clipPathUnits="userSpaceOnUse" id="clipPath5">
        <path d="M586 306 L684 306 L684 323 L586 323 L586 306 Z" />
      </clipPath>
      <clipPath clipPathUnits="userSpaceOnUse" id="clipPath6">
        <path d="M691 259 L704 259 L704 267 L691 267 L691 259 Z" />
      </clipPath>
      <clipPath clipPathUnits="userSpaceOnUse" id="clipPath7">
        <path d="M453 216 L472 216 L472 229 L453 229 L453 216 Z" />
      </clipPath>
      <clipPath clipPathUnits="userSpaceOnUse" id="clipPath8">
        <path d="M684 318 L697 318 L697 328 L684 328 L684 318 Z" />
      </clipPath>
      <clipPath clipPathUnits="userSpaceOnUse" id="clipPath9">
        <path d="M427 328 L648 328 L648 387 L427 387 L427 328 Z" />
      </clipPath>
      <clipPath clipPathUnits="userSpaceOnUse" id="clipPath10">
        <path d="M466 350 L486 350 L486 367 L466 367 L466 350 Z" />
      </clipPath>
      <clipPath clipPathUnits="userSpaceOnUse" id="clipPath11">
        <path d="M437 370 L525 370 L525 387 L437 387 L437 370 Z" />
      </clipPath>
      <clipPath clipPathUnits="userSpaceOnUse" id="clipPath12">
        <path d="M585 349 L593 349 L593 366 L585 366 L585 349 Z" />
      </clipPath>
      <clipPath clipPathUnits="userSpaceOnUse" id="clipPath13">
        <path d="M545 369 L643 369 L643 386 L545 386 L545 369 Z" />
      </clipPath>
      <clipPath clipPathUnits="userSpaceOnUse" id="clipPath14">
        <path d="M479 328 L487 328 L487 341 L479 341 L479 328 Z" />
      </clipPath>
      <clipPath clipPathUnits="userSpaceOnUse" id="clipPath15">
        <path d="M436 340 L455 340 L455 353 L436 353 L436 340 Z" />
      </clipPath>
      <clipPath clipPathUnits="userSpaceOnUse" id="clipPath16">
        <path d="M630 340 L640 340 L640 353 L630 353 L630 340 Z" />
      </clipPath>
      <clipPath clipPathUnits="userSpaceOnUse" id="clipPath17">
        <path d="M131 27 L501 27 L501 98 L131 98 L131 27 Z" />
      </clipPath>
      <clipPath clipPathUnits="userSpaceOnUse" id="clipPath18">
        <path d="M158 61 L166 61 L166 78 L158 78 L158 61 Z" />
      </clipPath>
      <clipPath clipPathUnits="userSpaceOnUse" id="clipPath19">
        <path d="M147 81 L187 81 L187 98 L147 98 L147 81 Z" />
      </clipPath>
      <clipPath clipPathUnits="userSpaceOnUse" id="clipPath20">
        <path d="M431 27 L451 27 L451 44 L431 44 L431 27 Z" />
      </clipPath>
      <clipPath clipPathUnits="userSpaceOnUse" id="clipPath21">
        <path d="M397 47 L496 47 L496 64 L397 64 L397 47 Z" />
      </clipPath>
      <clipPath clipPathUnits="userSpaceOnUse" id="clipPath22">
        <path d="M194 35 L207 35 L207 43 L194 43 L194 35 Z" />
      </clipPath>
      <clipPath clipPathUnits="userSpaceOnUse" id="clipPath23">
        <path d="M210 35 L359 35 L359 52 L210 52 L210 35 Z" />
      </clipPath>
      <clipPath clipPathUnits="userSpaceOnUse" id="clipPath24">
        <path d="M131 48 L150 48 L150 61 L131 61 L131 48 Z" />
      </clipPath>
      <clipPath clipPathUnits="userSpaceOnUse" id="clipPath25">
        <path d="M148 293 L316 293 L316 364 L148 364 L148 293 Z" />
      </clipPath>
      <clipPath clipPathUnits="userSpaceOnUse" id="clipPath26">
        <path d="M255 306 L262 306 L262 323 L255 323 L255 306 Z" />
      </clipPath>
      <clipPath clipPathUnits="userSpaceOnUse" id="clipPath27">
        <path d="M220 326 L308 326 L308 343 L220 343 L220 326 Z" />
      </clipPath>
      <clipPath clipPathUnits="userSpaceOnUse" id="clipPath28">
        <path d="M192 293 L200 293 L200 310 L192 310 L192 293 Z" />
      </clipPath>
      <clipPath clipPathUnits="userSpaceOnUse" id="clipPath29">
        <path d="M160 313 L242 313 L242 330 L160 330 L160 313 Z" />
      </clipPath>
      <clipPath clipPathUnits="userSpaceOnUse" id="clipPath30">
        <path d="M180 347 L188 347 L188 360 L180 360 L180 347 Z" />
      </clipPath>
      <clipPath clipPathUnits="userSpaceOnUse" id="clipPath31">
        <path d="M191 347 L293 347 L293 364 L191 364 L191 347 Z" />
      </clipPath>
      <clipPath clipPathUnits="userSpaceOnUse" id="clipPath32">
        <path d="M148 340 L158 340 L158 353 L148 353 L148 340 Z" />
      </clipPath>
      <clipPath clipPathUnits="userSpaceOnUse" id="clipPath33">
        <path d="M461 39 L653 39 L653 101 L461 101 L461 39 Z" />
      </clipPath>
      <clipPath clipPathUnits="userSpaceOnUse" id="clipPath34">
        <path d="M516 44 L524 44 L524 61 L516 61 L516 44 Z" />
      </clipPath>
      <clipPath clipPathUnits="userSpaceOnUse" id="clipPath35">
        <path d="M479 64 L571 64 L571 81 L479 81 L479 64 Z" />
      </clipPath>
      <clipPath clipPathUnits="userSpaceOnUse" id="clipPath36">
        <path d="M597 39 L604 39 L604 56 L597 56 L597 39 Z" />
      </clipPath>
      <clipPath clipPathUnits="userSpaceOnUse" id="clipPath37">
        <path d="M566 59 L645 59 L645 76 L566 76 L566 59 Z" />
      </clipPath>
      <clipPath clipPathUnits="userSpaceOnUse" id="clipPath38">
        <path d="M484 84 L492 84 L492 97 L484 97 L484 84 Z" />
      </clipPath>
      <clipPath clipPathUnits="userSpaceOnUse" id="clipPath39">
        <path d="M495 84 L624 84 L624 101 L495 101 L495 84 Z" />
      </clipPath>
      <clipPath clipPathUnits="userSpaceOnUse" id="clipPath40">
        <path d="M461 77 L480 77 L480 90 L461 90 L461 77 Z" />
      </clipPath>
      <clipPath clipPathUnits="userSpaceOnUse" id="clipPath41">
        <path d="M643 77 L653 77 L653 90 L643 90 L643 77 Z" />
      </clipPath>
      <clipPath clipPathUnits="userSpaceOnUse" id="clipPath42">
        <path d="M453 108 L697 108 L697 210 L453 210 L453 108 Z" />
      </clipPath>
      <clipPath clipPathUnits="userSpaceOnUse" id="clipPath43">
        <path d="M506 173 L513 173 L513 190 L506 190 L506 173 Z" />
      </clipPath>
      <clipPath clipPathUnits="userSpaceOnUse" id="clipPath44">
        <path d="M470 193 L560 193 L560 210 L470 210 L470 193 Z" />
      </clipPath>
      <clipPath clipPathUnits="userSpaceOnUse" id="clipPath45">
        <path d="M625 114 L633 114 L633 131 L625 131 L625 114 Z" />
      </clipPath>
      <clipPath clipPathUnits="userSpaceOnUse" id="clipPath46">
        <path d="M589 134 L680 134 L680 151 L589 151 L589 134 Z" />
      </clipPath>
      <clipPath clipPathUnits="userSpaceOnUse" id="clipPath47">
        <path d="M554 174 L567 174 L567 182 L554 182 L554 174 Z" />
      </clipPath>
      <clipPath clipPathUnits="userSpaceOnUse" id="clipPath48">
        <path d="M570 174 L681 174 L681 191 L570 191 L570 174 Z" />
      </clipPath>
      <clipPath clipPathUnits="userSpaceOnUse" id="clipPath49">
        <path d="M684 108 L697 108 L697 118 L684 118 L684 108 Z" />
      </clipPath>
      <clipPath clipPathUnits="userSpaceOnUse" id="clipPath50">
        <path d="M228 92 L444 92 L444 164 L228 164 L228 92 Z" />
      </clipPath>
      <clipPath clipPathUnits="userSpaceOnUse" id="clipPath51">
        <path d="M405 103 L413 103 L413 120 L405 120 L405 103 Z" />
      </clipPath>
      <clipPath clipPathUnits="userSpaceOnUse" id="clipPath52">
        <path d="M390 123 L439 123 L439 140 L390 140 L390 123 Z" />
      </clipPath>
      <clipPath clipPathUnits="userSpaceOnUse" id="clipPath53">
        <path d="M319 114 L326 114 L326 131 L319 131 L319 114 Z" />
      </clipPath>
      <clipPath clipPathUnits="userSpaceOnUse" id="clipPath54">
        <path d="M283 134 L373 134 L373 151 L283 151 L283 134 Z" />
      </clipPath>
      <clipPath clipPathUnits="userSpaceOnUse" id="clipPath55">
        <path d="M228 93 L241 93 L241 101 L228 101 L228 93 Z" />
      </clipPath>
      <clipPath clipPathUnits="userSpaceOnUse" id="clipPath56">
        <path d="M244 93 L334 93 L334 110 L244 110 L244 93 Z" />
      </clipPath>
      <clipPath clipPathUnits="userSpaceOnUse" id="clipPath57">
        <path d="M373 92 L386 92 L386 111 L373 111 L373 92 Z" />
      </clipPath>
      <clipPath clipPathUnits="userSpaceOnUse" id="clipPath58">
        <path d="M269 224 L480 224 L480 333 L269 333 L269 224 Z" />
      </clipPath>
      <clipPath clipPathUnits="userSpaceOnUse" id="clipPath59">
        <path d="M315 229 L323 229 L323 246 L315 246 L315 229 Z" />
      </clipPath>
      <clipPath clipPathUnits="userSpaceOnUse" id="clipPath60">
        <path d="M279 249 L369 249 L369 266 L279 266 L279 249 Z" />
      </clipPath>
      <clipPath clipPathUnits="userSpaceOnUse" id="clipPath61">
        <path d="M422 293 L429 293 L429 310 L422 310 L422 293 Z" />
      </clipPath>
      <clipPath clipPathUnits="userSpaceOnUse" id="clipPath62">
        <path d="M387 313 L475 313 L475 330 L387 330 L387 313 Z" />
      </clipPath>
      <clipPath clipPathUnits="userSpaceOnUse" id="clipPath63">
        <path d="M352 279 L365 279 L365 287 L352 287 L352 279 Z" />
      </clipPath>
      <clipPath clipPathUnits="userSpaceOnUse" id="clipPath64">
        <path d="M369 224 L382 224 L382 243 L369 243 L369 224 Z" />
      </clipPath>
      <clipPath clipPathUnits="userSpaceOnUse" id="clipPath65">
        <path d="M31 38 L133 38 L133 66 L31 66 L31 38 Z" />
      </clipPath>
      <clipPath clipPathUnits="userSpaceOnUse" id="clipPath66">
        <path d="M33 40 L131 40 L131 65 L33 65 L33 40 Z" />
      </clipPath>
      <clipPath clipPathUnits="userSpaceOnUse" id="clipPath67">
        <path d="M38 44 L112 44 L112 61 L38 61 L38 44 Z" />
      </clipPath>
      <clipPath clipPathUnits="userSpaceOnUse" id="clipPath68">
        <path d="M115 44 L128 44 L128 61 L115 61 L115 44 Z" />
      </clipPath>
      <clipPath clipPathUnits="userSpaceOnUse" id="clipPath69">
        <path d="M115 44 L127 44 L127 60 L115 60 L115 44 Z" />
      </clipPath>
      <clipPath clipPathUnits="userSpaceOnUse" id="clipPath70">
        <path d="M115 47 L127 47 L127 60 L115 60 L115 47 Z" />
      </clipPath>
      <clipPath clipPathUnits="userSpaceOnUse" id="clipPath71">
        <path d="M33 63 L131 63 L131 66 L33 66 L33 63 Z" />
      </clipPath>
      <clipPath clipPathUnits="userSpaceOnUse" id="clipPath72">
        <path d="M303 161 L455 161 L455 226 L303 226 L303 161 Z" />
      </clipPath>
      <clipPath clipPathUnits="userSpaceOnUse" id="clipPath73">
        <path d="M305 163 L453 163 L453 188 L305 188 L305 163 Z" />
      </clipPath>
      <clipPath clipPathUnits="userSpaceOnUse" id="clipPath74">
        <path d="M323 167 L420 167 L420 184 L323 184 L323 167 Z" />
      </clipPath>
      <clipPath clipPathUnits="userSpaceOnUse" id="clipPath75">
        <path d="M437 167 L450 167 L450 184 L437 184 L437 167 Z" />
      </clipPath>
      <clipPath clipPathUnits="userSpaceOnUse" id="clipPath76">
        <path d="M437 167 L449 167 L449 183 L437 183 L437 167 Z" />
      </clipPath>
      <clipPath clipPathUnits="userSpaceOnUse" id="clipPath77">
        <path d="M437 170 L449 170 L449 183 L437 183 L437 170 Z" />
      </clipPath>
      <clipPath clipPathUnits="userSpaceOnUse" id="clipPath78">
        <path d="M305 186 L453 186 L453 190 L305 190 L305 186 Z" />
      </clipPath>
      <clipPath clipPathUnits="userSpaceOnUse" id="clipPath79">
        <path d="M303 67 L463 67 L463 94 L303 94 L303 67 Z" />
      </clipPath>
      <clipPath clipPathUnits="userSpaceOnUse" id="clipPath80">
        <path d="M305 69 L461 69 L461 94 L305 94 L305 69 Z" />
      </clipPath>
      <clipPath clipPathUnits="userSpaceOnUse" id="clipPath81">
        <path d="M321 73 L430 73 L430 90 L321 90 L321 73 Z" />
      </clipPath>
      <clipPath clipPathUnits="userSpaceOnUse" id="clipPath82">
        <path d="M445 73 L458 73 L458 90 L445 90 L445 73 Z" />
      </clipPath>
      <clipPath clipPathUnits="userSpaceOnUse" id="clipPath83">
        <path d="M445 73 L457 73 L457 89 L445 89 L445 73 Z" />
      </clipPath>
      <clipPath clipPathUnits="userSpaceOnUse" id="clipPath84">
        <path d="M445 76 L457 76 L457 89 L445 89 L445 76 Z" />
      </clipPath>
      <clipPath clipPathUnits="userSpaceOnUse" id="clipPath85">
        <path d="M313 330 L438 330 L438 357 L313 357 L313 330 Z" />
      </clipPath>
      <clipPath clipPathUnits="userSpaceOnUse" id="clipPath86">
        <path d="M315 332 L436 332 L436 357 L315 357 L315 332 Z" />
      </clipPath>
      <clipPath clipPathUnits="userSpaceOnUse" id="clipPath87">
        <path d="M329 336 L422 336 L422 353 L329 353 L329 336 Z" />
      </clipPath>
      <clipPath clipPathUnits="userSpaceOnUse" id="clipPath88">
        <path d="M31 308 L150 308 L150 353 L31 353 L31 308 Z" />
      </clipPath>
      <clipPath clipPathUnits="userSpaceOnUse" id="clipPath89">
        <path d="M33 310 L148 310 L148 352 L33 352 L33 310 Z" />
      </clipPath>
      <clipPath clipPathUnits="userSpaceOnUse" id="clipPath90">
        <path d="M56 314 L65 314 L65 331 L56 331 L56 314 Z" />
      </clipPath>
      <clipPath clipPathUnits="userSpaceOnUse" id="clipPath91">
        <path d="M63 314 L117 314 L117 331 L63 331 L63 314 Z" />
      </clipPath>
      <clipPath clipPathUnits="userSpaceOnUse" id="clipPath92">
        <path d="M115 314 L124 314 L124 331 L115 331 L115 314 Z" />
      </clipPath>
      <clipPath clipPathUnits="userSpaceOnUse" id="clipPath93">
        <path d="M37 331 L144 331 L144 348 L37 348 L37 331 Z" />
      </clipPath>
      <clipPath clipPathUnits="userSpaceOnUse" id="clipPath94">
        <path d="M33 350 L148 350 L148 353 L33 353 L33 350 Z" />
      </clipPath>
      <clipPath clipPathUnits="userSpaceOnUse" id="clipPath95">
        <path d="M637 325 L724 325 L724 354 L637 354 L637 325 Z" />
      </clipPath>
      <clipPath clipPathUnits="userSpaceOnUse" id="clipPath96">
        <path d="M639 327 L722 327 L722 352 L639 352 L639 327 Z" />
      </clipPath>
      <clipPath clipPathUnits="userSpaceOnUse" id="clipPath97">
        <path d="M643 331 L704 331 L704 348 L643 348 L643 331 Z" />
      </clipPath>
      <clipPath clipPathUnits="userSpaceOnUse" id="clipPath98">
        <path d="M706 331 L719 331 L719 348 L706 348 L706 331 Z" />
      </clipPath>
      <clipPath clipPathUnits="userSpaceOnUse" id="clipPath99">
        <path d="M706 331 L718 331 L718 347 L706 347 L706 331 Z" />
      </clipPath>
      <clipPath clipPathUnits="userSpaceOnUse" id="clipPath100">
        <path d="M706 334 L718 334 L718 347 L706 347 L706 334 Z" />
      </clipPath>
      <clipPath clipPathUnits="userSpaceOnUse" id="clipPath101">
        <path d="M650 64 L730 64 L730 110 L650 110 L650 64 Z" />
      </clipPath>
      <clipPath clipPathUnits="userSpaceOnUse" id="clipPath102">
        <path d="M652 66 L728 66 L728 108 L652 108 L652 66 Z" />
      </clipPath>
      <clipPath clipPathUnits="userSpaceOnUse" id="clipPath103">
        <path d="M656 70 L665 70 L665 87 L656 87 L656 70 Z" />
      </clipPath>
      <clipPath clipPathUnits="userSpaceOnUse" id="clipPath104">
        <path d="M663 70 L717 70 L717 87 L663 87 L663 70 Z" />
      </clipPath>
      <clipPath clipPathUnits="userSpaceOnUse" id="clipPath105">
        <path d="M715 70 L724 70 L724 87 L715 87 L715 70 Z" />
      </clipPath>
      <clipPath clipPathUnits="userSpaceOnUse" id="clipPath106">
        <path d="M659 87 L720 87 L720 104 L659 104 L659 87 Z" />
      </clipPath>
      <clipPath clipPathUnits="userSpaceOnUse" id="clipPath107">
        <path d="M652 106 L728 106 L728 110 L652 110 L652 106 Z" />
      </clipPath>
    </defs>
    <g fill="rgb(51,51,51)" text-rendering="optimizeLegibility" font-family="&apos;Segoe UI&apos;" stroke-linecap="butt" stroke="rgb(51,51,51)">
      <line clip-path="url(#clipPath1)" fill="none" x1="454" x2="690" y1="222" y2="222" />
      <line clip-path="url(#clipPath1)" fill="none" x1="690" x2="690" y1="222" y2="326" />
      <text xml:space="preserve" x="497" y="240" clip-path="url(#clipPath2)" stroke="none">0..1</text>
      <text xml:space="preserve" x="467" y="260" clip-path="url(#clipPath3)" stroke="none">templateBinding</text>
      <text xml:space="preserve" x="627" y="300" clip-path="url(#clipPath4)" stroke="none">1</text>
      <text xml:space="preserve" x="587" y="320" clip-path="url(#clipPath5)" stroke="none">bindingExpression</text>
      <polygon fill="black" clip-path="url(#clipPath6)" points=" 702 260 697 265 692 260" stroke="none" />
      <polygon clip-path="url(#clipPath7)" points=" 454 222 462 217 470 222 462 227" stroke="none" />
      <polygon fill="none" clip-path="url(#clipPath7)" points=" 454 222 462 217 470 222 462 227" />
      <line clip-path="url(#clipPath8)" fill="none" x1="685" x2="690" y1="319" y2="326" />
      <line clip-path="url(#clipPath8)" fill="none" x1="690" x2="695" y1="326" y2="319" />
      <line clip-path="url(#clipPath9)" fill="none" x1="437" x2="638" y1="346" y2="346" />
      <text xml:space="preserve" x="467" y="364" clip-path="url(#clipPath10)" stroke="none">0..1</text>
      <text xml:space="preserve" x="438" y="384" clip-path="url(#clipPath11)" stroke="none">propertyBinding</text>
      <text xml:space="preserve" x="586" y="363" clip-path="url(#clipPath12)" stroke="none">1</text>
      <text xml:space="preserve" x="546" y="383" clip-path="url(#clipPath13)" stroke="none">bindingExpression</text>
      <polygon fill="black" clip-path="url(#clipPath14)" points=" 480 329 485 334 480 339" stroke="none" />
      <polygon clip-path="url(#clipPath15)" points=" 437 346 445 341 453 346 445 351" stroke="none" />
      <polygon fill="none" clip-path="url(#clipPath15)" points=" 437 346 445 341 453 346 445 351" />
      <line clip-path="url(#clipPath16)" fill="none" x1="631" x2="638" y1="351" y2="346" />
      <line clip-path="url(#clipPath16)" fill="none" x1="638" x2="631" y1="346" y2="341" />
      <line clip-path="url(#clipPath17)" fill="none" x1="132" x2="383" y1="54" y2="54" />
      <line clip-path="url(#clipPath17)" fill="none" x1="383" x2="383" y1="54" y2="68" />
      <text xml:space="preserve" x="159" y="75" clip-path="url(#clipPath18)" stroke="none">1</text>
      <text xml:space="preserve" x="148" y="95" clip-path="url(#clipPath19)" stroke="none">pattern</text>
      <text xml:space="preserve" x="432" y="41" clip-path="url(#clipPath20)" stroke="none">0..1</text>
      <text xml:space="preserve" x="398" y="61" clip-path="url(#clipPath21)" stroke="none">templateSignature</text>
      <polygon fill="black" clip-path="url(#clipPath22)" points=" 205 36 200 41 195 36" stroke="none" />
      <text xml:space="preserve" x="211" y="49" clip-path="url(#clipPath23)" stroke="none">ContainsTemplateSignature</text>
      <polygon clip-path="url(#clipPath24)" points=" 132 54 140 49 148 54 140 59" stroke="none" />
      <polygon fill="none" clip-path="url(#clipPath24)" points=" 132 54 140 49 148 54 140 59" />
      <line clip-path="url(#clipPath25)" fill="none" x1="314" x2="149" y1="346" y2="346" />
      <text xml:space="preserve" x="256" y="320" clip-path="url(#clipPath26)" stroke="none">*</text>
      <text xml:space="preserve" x="221" y="340" clip-path="url(#clipPath27)" stroke="none">propertyBinding</text>
      <text xml:space="preserve" x="193" y="307" clip-path="url(#clipPath28)" stroke="none">1</text>
      <text xml:space="preserve" x="161" y="327" clip-path="url(#clipPath29)" stroke="none">boundProperty</text>
      <polygon fill="black" clip-path="url(#clipPath30)" points=" 186 358 181 353 186 348" stroke="none" />
      <text xml:space="preserve" x="192" y="361" clip-path="url(#clipPath31)" stroke="none">HasBoundProperty</text>
      <line clip-path="url(#clipPath32)" fill="none" x1="156" x2="149" y1="341" y2="346" />
      <line clip-path="url(#clipPath32)" fill="none" x1="149" x2="156" y1="346" y2="351" />
      <line clip-path="url(#clipPath33)" fill="none" x1="462" x2="651" y1="83" y2="83" />
      <text xml:space="preserve" x="517" y="58" clip-path="url(#clipPath34)" stroke="none">1</text>
      <text xml:space="preserve" x="480" y="78" clip-path="url(#clipPath35)" stroke="none">owningTemplate</text>
      <text xml:space="preserve" x="598" y="53" clip-path="url(#clipPath36)" stroke="none">*</text>
      <text xml:space="preserve" x="567" y="73" clip-path="url(#clipPath37)" stroke="none">typeParameter</text>
      <polygon fill="black" clip-path="url(#clipPath38)" points=" 485 85 490 90 485 95" stroke="none" />
      <text xml:space="preserve" x="496" y="98" clip-path="url(#clipPath39)" stroke="none">ContainsTypeParameter</text>
      <polygon clip-path="url(#clipPath40)" points=" 462 83 470 78 478 83 470 88" stroke="none" />
      <polygon fill="none" clip-path="url(#clipPath40)" points=" 462 83 470 78 478 83 470 88" />
      <line clip-path="url(#clipPath41)" fill="none" x1="644" x2="651" y1="88" y2="83" />
      <line clip-path="url(#clipPath41)" fill="none" x1="651" x2="644" y1="83" y2="78" />
      <line clip-path="url(#clipPath42)" fill="none" x1="454" x2="690" y1="192" y2="192" />
      <line clip-path="url(#clipPath42)" fill="none" x1="690" x2="690" y1="192" y2="109" />
      <text xml:space="preserve" x="507" y="187" clip-path="url(#clipPath43)" stroke="none">*</text>
      <text xml:space="preserve" x="471" y="207" clip-path="url(#clipPath44)" stroke="none">templateBinding</text>
      <text xml:space="preserve" x="626" y="128" clip-path="url(#clipPath45)" stroke="none">1</text>
      <text xml:space="preserve" x="590" y="148" clip-path="url(#clipPath46)" stroke="none">boundParameter</text>
      <polygon fill="black" clip-path="url(#clipPath47)" points=" 555 180 560 175 565 180" stroke="none" />
      <text xml:space="preserve" x="571" y="188" clip-path="url(#clipPath48)" stroke="none">HasBoundParameter</text>
      <line clip-path="url(#clipPath49)" fill="none" x1="695" x2="690" y1="116" y2="109" />
      <line clip-path="url(#clipPath49)" fill="none" x1="690" x2="685" y1="109" y2="116" />
      <line clip-path="url(#clipPath50)" fill="none" x1="379" x2="379" y1="93" y2="162" />
      <text xml:space="preserve" x="406" y="117" clip-path="url(#clipPath51)" stroke="none">1</text>
      <text xml:space="preserve" x="391" y="137" clip-path="url(#clipPath52)" stroke="none">template</text>
      <text xml:space="preserve" x="320" y="128" clip-path="url(#clipPath53)" stroke="none">*</text>
      <text xml:space="preserve" x="284" y="148" clip-path="url(#clipPath54)" stroke="none">templateBinding</text>
      <polygon fill="black" clip-path="url(#clipPath55)" points=" 239 94 234 99 229 94" stroke="none" />
      <text xml:space="preserve" x="245" y="107" clip-path="url(#clipPath56)" stroke="none">ContainsBinding</text>
      <polygon clip-path="url(#clipPath57)" points=" 379 93 384 101 379 109 374 101" stroke="none" />
      <polygon fill="none" clip-path="url(#clipPath57)" points=" 379 93 384 101 379 109 374 101" />
      <line clip-path="url(#clipPath58)" fill="none" x1="375" x2="375" y1="225" y2="331" />
      <text xml:space="preserve" x="316" y="243" clip-path="url(#clipPath59)" stroke="none">1</text>
      <text xml:space="preserve" x="280" y="263" clip-path="url(#clipPath60)" stroke="none">templateBinding</text>
      <text xml:space="preserve" x="423" y="307" clip-path="url(#clipPath61)" stroke="none">*</text>
      <text xml:space="preserve" x="388" y="327" clip-path="url(#clipPath62)" stroke="none">propertyBinding</text>
      <polygon fill="black" clip-path="url(#clipPath63)" points=" 363 280 358 285 353 280" stroke="none" />
      <polygon clip-path="url(#clipPath64)" points=" 375 225 380 233 375 241 370 233" stroke="none" />
      <polygon fill="none" clip-path="url(#clipPath64)" points=" 375 225 380 233 375 241 370 233" />
      <rect x="32" y="39" clip-path="url(#clipPath65)" fill="white" width="100" height="26" stroke="none" />
      <rect x="34" y="41" clip-path="url(#clipPath66)" fill="url(#linearGradient1)" width="96" height="23" stroke="none" />
      <text x="39" y="58" clip-path="url(#clipPath67)" stroke="none" font-weight="bold" xml:space="preserve">StoryPattern</text>
      <polygon fill="gray" clip-path="url(#clipPath68)" opacity="0.549" points=" 117 46 123 46 126 49 126 59 117 59" stroke="none" />
      <polygon fill="rgb(205,223,101)" clip-path="url(#clipPath69)" points=" 116 45 122 45 125 48 125 58 116 58" stroke="none" />
      <polygon fill="none" clip-path="url(#clipPath69)" points=" 116 45 122 45 125 48 125 58 116 58" stroke="rgb(141,196,17)" />
      <polygon fill="none" clip-path="url(#clipPath69)" points=" 122 45 125 48 122 48" stroke="rgb(141,196,17)" />
    </g>
    <g font-size="8" stroke-linecap="butt" fill="rgb(64,64,64)" text-rendering="optimizeLegibility" font-family="&apos;Arial&apos;" stroke="rgb(64,64,64)">
      <text xml:space="preserve" x="121" y="56" clip-path="url(#clipPath70)" stroke="none"></text>
    </g>
    <g fill="rgb(204,204,204)" text-rendering="optimizeLegibility" font-family="&apos;Segoe UI&apos;" stroke-linecap="butt" stroke="rgb(204,204,204)">
      <rect x="34" y="64" clip-path="url(#clipPath71)" width="96" height="2" stroke="none" />
      <rect x="33" y="40" clip-path="url(#clipPath65)" fill="none" width="98" height="24" stroke-width="2" />
      <rect x="304" y="162" clip-path="url(#clipPath72)" fill="white" width="150" height="63" stroke="none" stroke-width="2" />
      <rect x="306" y="164" clip-path="url(#clipPath73)" fill="url(#linearGradient2)" width="146" height="23" stroke="none" stroke-width="2" />
    </g>
    <g stroke-linecap="butt" fill="rgb(51,51,51)" text-rendering="optimizeLegibility" font-family="&apos;Segoe UI&apos;" stroke="rgb(51,51,51)" font-weight="bold" stroke-width="2">
      <text xml:space="preserve" x="324" y="181" clip-path="url(#clipPath74)" stroke="none">TemplateBinding</text>
      <polygon fill="gray" clip-path="url(#clipPath75)" opacity="0.549" points=" 439 169 445 169 448 172 448 182 439 182" stroke="none" />
      <polygon fill="rgb(205,223,101)" clip-path="url(#clipPath76)" points=" 438 168 444 168 447 171 447 181 438 181" stroke="none" />
    </g>
    <g fill="rgb(141,196,17)" text-rendering="optimizeLegibility" font-family="&apos;Segoe UI&apos;" stroke-linecap="butt" stroke="rgb(141,196,17)">
      <polygon fill="none" clip-path="url(#clipPath76)" points=" 438 168 444 168 447 171 447 181 438 181" />
      <polygon fill="none" clip-path="url(#clipPath76)" points=" 444 168 447 171 444 171" />
    </g>
    <g font-size="8" stroke-linecap="butt" fill="rgb(64,64,64)" text-rendering="optimizeLegibility" font-family="&apos;Arial&apos;" stroke="rgb(64,64,64)">
      <text xml:space="preserve" x="443" y="179" clip-path="url(#clipPath77)" stroke="none"></text>
    </g>
    <g fill="rgb(204,204,204)" text-rendering="optimizeLegibility" font-family="&apos;Segoe UI&apos;" stroke-linecap="butt" stroke="rgb(204,204,204)">
      <rect x="306" y="187" clip-path="url(#clipPath78)" width="146" height="2" stroke="none" />
      <rect x="305" y="163" clip-path="url(#clipPath72)" fill="none" width="148" height="61" stroke-width="2" />
      <rect x="304" y="68" clip-path="url(#clipPath79)" fill="white" width="158" height="25" stroke="none" stroke-width="2" />
      <rect x="306" y="70" clip-path="url(#clipPath80)" fill="url(#linearGradient3)" width="154" height="23" stroke="none" stroke-width="2" />
    </g>
    <g stroke-linecap="butt" fill="rgb(51,51,51)" text-rendering="optimizeLegibility" font-family="&apos;Segoe UI&apos;" stroke="rgb(51,51,51)" font-weight="bold" stroke-width="2">
      <text xml:space="preserve" x="322" y="87" clip-path="url(#clipPath81)" stroke="none">TemplateSignature</text>
      <polygon fill="gray" clip-path="url(#clipPath82)" opacity="0.549" points=" 447 75 453 75 456 78 456 88 447 88" stroke="none" />
      <polygon fill="rgb(205,223,101)" clip-path="url(#clipPath83)" points=" 446 74 452 74 455 77 455 87 446 87" stroke="none" />
    </g>
    <g fill="rgb(141,196,17)" text-rendering="optimizeLegibility" font-family="&apos;Segoe UI&apos;" stroke-linecap="butt" stroke="rgb(141,196,17)">
      <polygon fill="none" clip-path="url(#clipPath83)" points=" 446 74 452 74 455 77 455 87 446 87" />
      <polygon fill="none" clip-path="url(#clipPath83)" points=" 452 74 455 77 452 77" />
    </g>
    <g font-size="8" stroke-linecap="butt" fill="rgb(64,64,64)" text-rendering="optimizeLegibility" font-family="&apos;Arial&apos;" stroke="rgb(64,64,64)">
      <text xml:space="preserve" x="451" y="85" clip-path="url(#clipPath84)" stroke="none"></text>
    </g>
    <g stroke-linecap="butt" fill="rgb(204,204,204)" text-rendering="optimizeLegibility" font-family="&apos;Segoe UI&apos;" stroke="rgb(204,204,204)" stroke-width="2">
      <rect x="305" y="69" clip-path="url(#clipPath79)" fill="none" width="156" height="23" />
      <rect x="314" y="331" clip-path="url(#clipPath85)" fill="white" width="123" height="25" stroke="none" />
      <rect x="316" y="333" clip-path="url(#clipPath86)" fill="url(#linearGradient4)" width="119" height="23" stroke="none" />
      <text x="330" y="350" clip-path="url(#clipPath87)" fill="rgb(51,51,51)" stroke="none" font-weight="bold" xml:space="preserve">PropertyBinding</text>
      <rect x="315" y="332" clip-path="url(#clipPath85)" fill="none" width="121" height="23" />
      <rect x="32" y="309" clip-path="url(#clipPath88)" fill="white" width="117" height="43" stroke="none" />
      <rect x="34" y="311" clip-path="url(#clipPath89)" fill="url(#linearGradient5)" width="113" height="40" stroke="none" />
      <text x="57" y="328" clip-path="url(#clipPath90)" fill="rgb(51,51,51)" stroke="none" xml:space="preserve">«</text>
      <text x="64" y="328" clip-path="url(#clipPath91)" fill="rgb(51,51,51)" stroke="none" xml:space="preserve">Metaclass</text>
      <text x="116" y="328" clip-path="url(#clipPath92)" fill="rgb(51,51,51)" stroke="none" xml:space="preserve">»</text>
    </g>
    <g stroke-linecap="butt" fill="rgb(51,51,51)" text-rendering="optimizeLegibility" font-family="&apos;Segoe UI&apos;" font-style="italic" stroke="rgb(51,51,51)" font-weight="bold" stroke-width="2">
      <text xml:space="preserve" x="38" y="345" clip-path="url(#clipPath93)" stroke="none">EStructuralFeature</text>
    </g>
    <g stroke-linecap="butt" fill="rgb(204,204,204)" text-rendering="optimizeLegibility" font-family="&apos;Segoe UI&apos;" stroke="rgb(204,204,204)" stroke-width="2">
      <rect x="34" y="351" clip-path="url(#clipPath94)" width="113" height="2" stroke="none" />
      <rect x="33" y="310" clip-path="url(#clipPath88)" fill="none" width="115" height="41" />
      <rect x="638" y="326" clip-path="url(#clipPath95)" fill="white" width="85" height="27" stroke="none" />
      <rect x="640" y="328" clip-path="url(#clipPath96)" fill="url(#linearGradient6)" width="81" height="23" stroke="none" />
    </g>
    <g stroke-linecap="butt" fill="rgb(51,51,51)" text-rendering="optimizeLegibility" font-family="&apos;Segoe UI&apos;" font-style="italic" stroke="rgb(51,51,51)" font-weight="bold" stroke-width="2">
      <text xml:space="preserve" x="644" y="345" clip-path="url(#clipPath97)" stroke="none">Expression</text>
    </g>
    <g stroke-linecap="butt" fill="gray" text-rendering="optimizeLegibility" font-family="&apos;Segoe UI&apos;" stroke="gray" stroke-width="2">
      <polygon clip-path="url(#clipPath98)" opacity="0.549" points=" 708 333 714 333 717 336 717 346 708 346" stroke="none" />
      <polygon fill="rgb(205,223,101)" clip-path="url(#clipPath99)" points=" 707 332 713 332 716 335 716 345 707 345" stroke="none" />
      <polygon fill="none" stroke-width="1" clip-path="url(#clipPath99)" points=" 707 332 713 332 716 335 716 345 707 345" stroke="rgb(141,196,17)" />
      <polygon fill="none" stroke-width="1" clip-path="url(#clipPath99)" points=" 713 332 716 335 713 335" stroke="rgb(141,196,17)" />
    </g>
    <g font-size="8" stroke-linecap="butt" fill="rgb(64,64,64)" text-rendering="optimizeLegibility" font-family="&apos;Arial&apos;" stroke="rgb(64,64,64)">
      <text xml:space="preserve" x="712" y="343" clip-path="url(#clipPath100)" stroke="none"></text>
    </g>
    <g stroke-linecap="butt" fill="rgb(204,204,204)" text-rendering="optimizeLegibility" font-family="&apos;Segoe UI&apos;" stroke="rgb(204,204,204)" stroke-width="2">
      <rect x="639" y="327" clip-path="url(#clipPath95)" fill="none" width="83" height="25" />
      <rect x="651" y="65" clip-path="url(#clipPath101)" fill="white" width="78" height="44" stroke="none" />
      <rect x="653" y="67" clip-path="url(#clipPath102)" fill="url(#linearGradient7)" width="74" height="40" stroke="none" />
      <text x="657" y="84" clip-path="url(#clipPath103)" fill="rgb(51,51,51)" stroke="none" xml:space="preserve">«</text>
      <text x="664" y="84" clip-path="url(#clipPath104)" fill="rgb(51,51,51)" stroke="none" xml:space="preserve">Metaclass</text>
      <text x="716" y="84" clip-path="url(#clipPath105)" fill="rgb(51,51,51)" stroke="none" xml:space="preserve">»</text>
    </g>
    <g stroke-linecap="butt" fill="rgb(51,51,51)" text-rendering="optimizeLegibility" font-family="&apos;Segoe UI&apos;" font-style="italic" stroke="rgb(51,51,51)" font-weight="bold" stroke-width="2">
      <text xml:space="preserve" x="660" y="101" clip-path="url(#clipPath106)" stroke="none">EClassifier</text>
    </g>
    <g stroke-linecap="butt" fill="rgb(204,204,204)" text-rendering="optimizeLegibility" font-family="&apos;Segoe UI&apos;" stroke="rgb(204,204,204)" stroke-width="2">
      <rect x="653" y="107" clip-path="url(#clipPath107)" width="74" height="2" stroke="none" />
      <rect x="652" y="66" clip-path="url(#clipPath101)" fill="none" width="76" height="42" />
    </g>
  </g>
</svg>
